<svg xmlns="http://www.w3.org/2000/svg" width="157" height="230" fill="none" viewBox="0 0 157 230">
    <mask id="a" width="184" height="150" x="-14" y="-16" maskUnits="userSpaceOnUse">
        <path fill="#fff" fill-rule="evenodd" d="M-13.023-15.027h182.326v142.255l-44.193-16.026-45.95 7.642-25.952 15.122-11.497-6.738-6.475 6.738-7.3-11.821-40.96 5.083V-15.027z" clip-rule="evenodd"/>
    </mask>
    <g fill-rule="evenodd" clip-rule="evenodd" mask="url(#a)">
        <path fill="#fff" d="M0 .023L156.79 0c-3.992 41.313-5.986 80.64-5.981 117.982a1050.33 1050.33 0 0 0 6.012 111.993L.033 230c3.477-35.339 5.212-72.671 5.205-111.994A1338.717 1338.717 0 0 0 0 .023z"/>
        <path fill="#D9452D" d="M18.358.02a1335.47 1335.47 0 0 1 3.678 98.819c.006 39.323-1.73 76.654-5.206 111.993l138.114-.019c.568 6.388 1.196 12.776 1.883 19.164L.033 230c3.477-35.339 5.212-72.671 5.205-111.994A1338.714 1338.714 0 0 0 0 .023L18.358.02z" opacity=".1"/>
        <path fill="#D9452D" d="M126.12 24.458c0-3.234 1.108-7.773 2.769-9.993l-99.648-.425a20.427 20.427 0 0 1 2.179 9.308c0 3.406-1.662 8.328-3.485 10.19l100.756.359a20.536 20.536 0 0 1-2.571-9.439z" opacity=".2"/>
        <path fill="#D8232A" d="M31.354 74.681c-.006-1.29.113-2.578.355-3.846l-12.783-.163c.192 1.184.284 2.382.277 3.582a17.172 17.172 0 0 1-.447 3.922l12.926.138a21.247 21.247 0 0 1-.328-3.633zM47.832 74.681c-.006-1.29.112-2.578.355-3.846l-12.784-.163c.193 1.184.287 2.382.28 3.582a17.167 17.167 0 0 1-.448 3.922l12.926.138a21.247 21.247 0 0 1-.33-3.633zM65.807 74.681c-.006-1.29.113-2.578.355-3.846l-12.783-.163c.192 1.184.284 2.382.277 3.582a17.173 17.173 0 0 1-.448 3.922l12.926.138a21.236 21.236 0 0 1-.327-3.633zM85.28 74.681c-.005-1.29.114-2.578.356-3.846l-12.784-.163c.192 1.184.285 2.382.277 3.582a17.172 17.172 0 0 1-.447 3.922l12.926.138a21.247 21.247 0 0 1-.327-3.633zM103.256 74.681c-.006-1.29.113-2.578.355-3.846l-12.783-.163c.192 1.184.284 2.382.277 3.582a17.172 17.172 0 0 1-.447 3.922l12.926.138a21.267 21.267 0 0 1-.328-3.633z" opacity=".2"/>
        <path fill="#D9452D" d="M136.68 114.957a7.298 7.298 0 0 1 1.107-3.592l-119.174-.163c.661.424 1.215 2.201 1.215 3.755 0 1.311-.554 3.332-1.661 3.749l119.386.138a6.927 6.927 0 0 1-.873-3.887zM136.68 137.721a7.295 7.295 0 0 1 1.107-3.592l-119.174-.163c.661.424 1.215 2.201 1.215 3.755 0 1.311-.554 3.331-1.661 3.749l119.386.138a6.929 6.929 0 0 1-.873-3.887z" opacity=".2"/>
        <path fill="#D8232A" d="M119.733 74.681c-.006-1.29.113-2.578.355-3.846l-12.783-.163c.193 1.184.286 2.382.28 3.582a17.145 17.145 0 0 1-.448 3.922l12.926.138a21.268 21.268 0 0 1-.33-3.633zM137.709 74.681c-.006-1.29.113-2.578.355-3.846l-12.783-.163c.192 1.184.284 2.382.277 3.582a17.145 17.145 0 0 1-.448 3.922l12.926.138a21.266 21.266 0 0 1-.327-3.633z" opacity=".2"/>
    </g>
    <mask id="b" width="184" height="123" x="-14" y="122" maskUnits="userSpaceOnUse">
        <path fill="#fff" fill-rule="evenodd" d="M-13.023 244.163h182.326V141.608l-44.193-18.76-44.27 7.013-27.632 13.533-11.497-5.872-6.475 5.872-10.003-10.168-38.256 1.887v109.05z" clip-rule="evenodd"/>
    </mask>
    <g fill-rule="evenodd" clip-rule="evenodd" mask="url(#b)">
        <path fill="#fff" d="M0 .023L156.79 0c-3.992 41.313-5.986 80.64-5.981 117.982a1050.33 1050.33 0 0 0 6.012 111.993L.033 230c3.477-35.339 5.212-72.671 5.205-111.994A1338.717 1338.717 0 0 0 0 .023z"/>
        <path fill="#D9452D" d="M18.358.02a1335.47 1335.47 0 0 1 3.678 98.819c.006 39.323-1.73 76.654-5.206 111.993l138.114-.019c.568 6.388 1.196 12.776 1.883 19.164L.033 230c3.477-35.339 5.212-72.671 5.205-111.994A1338.714 1338.714 0 0 0 0 .023L18.358.02z" opacity=".1"/>
        <path fill="#D9452D" d="M126.12 201.324a6.652 6.652 0 0 1 2.769-4.964l-99.648-.211a6.542 6.542 0 0 1 2.179 4.623c0 1.692-1.662 4.137-3.485 5.062l100.756.178c-1.463-1.379-2.571-2.999-2.571-4.688zM136.68 137.721a7.295 7.295 0 0 1 1.107-3.592l-119.174-.163c.661.424 1.215 2.201 1.215 3.755 0 1.311-.554 3.331-1.661 3.749l119.386.138a6.929 6.929 0 0 1-.873-3.887zM136.68 160.485a7.295 7.295 0 0 1 1.107-3.592l-119.174-.164c.661.424 1.215 2.202 1.215 3.756 0 1.311-.554 3.331-1.661 3.749l119.386.137a6.924 6.924 0 0 1-.873-3.886z" opacity=".2"/>
    </g>
</svg>
