<svg xmlns="http://www.w3.org/2000/svg" width="24" height="14" fill="none" viewBox="0 0 24 14">
    <path fill="#fff" fill-rule="evenodd" d="M0 9.332h23.715V4.665H0v4.667z" clip-rule="evenodd"/>
    <path fill="#1E2788" fill-rule="evenodd" d="M0 14h23.715V9.332H0V14z" clip-rule="evenodd"/>
    <path fill="#CB0028" fill-rule="evenodd" d="M0 4.665h23.715V0H0v4.665z" clip-rule="evenodd"/>
    <path fill="#fff" fill-rule="evenodd" d="M9.11 4.598a8.129 8.129 0 0 1 2.711-.472 8.036 8.036 0 0 1 2.784.48l.691-1.409-.486-.856s-.866.36-.872.36c-.007 0-.611-.673-.611-.673l-.775.475-.727-.563-.683.555-.8-.47-.582.703-.873-.379-.47.848.693 1.401z" clip-rule="evenodd"/>
    <path fill="#CB0028" fill-rule="evenodd" d="M8.879 2.368l-.442.84.689 1.381a7.636 7.636 0 0 1 2.695-.482c.973 0 1.9.159 2.777.473l.68-1.393-.484-.834c-.845.368-.85.368-.856.368-.012 0-.015 0-.624-.679l-.75.478-.752-.564-.657.554-.823-.466-.556.696-.897-.372zm5.735 2.264l-.014-.006a8.066 8.066 0 0 0-2.76-.48 8.204 8.204 0 0 0-2.725.471L8.4 3.207l.468-.867.9.37.557-.697.826.464.66-.552.752.562.754-.475c.257.262.613.656.631.673.008-.011.62-.266.853-.363l.512.865-.7 1.445z" clip-rule="evenodd"/>
    <path fill="#3A7AA1" fill-rule="evenodd" d="M13.534 4.209l.397-1.416.847-.347.444.759-.641 1.325a5.518 5.518 0 0 0-1.047-.321z" clip-rule="evenodd"/>
    <path fill="#4C73D5" fill-rule="evenodd" d="M14.772 2.447l-.84.35-.393 1.412c.487.105.68.168 1.04.313l.639-1.319-.446-.756zm-.188 2.088l-.005-.001a5.49 5.49 0 0 0-1.045-.321l.392-1.42.849-.353.453.763-.644 1.332z" clip-rule="evenodd"/>
    <path fill="#3A7AA1" fill-rule="evenodd" d="M11.305 4.055l-.132-1.464.673-.542.701.54-.124 1.466c-.388-.02-.664-.018-1.118 0z" clip-rule="evenodd"/>
    <path fill="#4C73D5" fill-rule="evenodd" d="M11.84 2.05l-.665.543.135 1.46c.44-.027.723-.022 1.107-.002l.126-1.463-.703-.537zm.587 2.01h-.004c-.388-.02-.664-.02-1.118 0l-.138-1.469.673-.547.71.542-.123 1.475z" clip-rule="evenodd"/>
    <path fill="#3A7AA1" fill-rule="evenodd" d="M9.143 4.528l-.628-1.34.419-.743.868.382.368 1.386c-.4.082-.607.15-1.027.315z" clip-rule="evenodd"/>
    <path fill="#4C73D5" fill-rule="evenodd" d="M8.934 2.45l-.413.74.623 1.332a5.52 5.52 0 0 1 1.024-.316L9.796 2.83l-.863-.38zm.207 2.085L8.51 3.187l.418-.744.876.381.372 1.387c-.407.091-.625.163-1.032.321l-.003.003z" clip-rule="evenodd"/>
    <path fill="#fff" fill-rule="evenodd" d="M9.008 3.852c.193.023.327.012.494-.045.195-.094.258-.202.317-.289.046.17.028.33-.194.46-.2.106-.485.072-.617-.126z" clip-rule="evenodd"/>
    <path fill="#fff" fill-rule="evenodd" d="M9.378 4.042a.437.437 0 0 1-.375-.187c.063 0 .114.003.162.003a.949.949 0 0 0 .335-.056c.182-.086.245-.183.305-.268a.603.603 0 0 1-.303.278 1.077 1.077 0 0 1-.494.046c.124.168.409.224.615.117.182-.109.219-.233.212-.347.018.111-.018.244-.208.353a.508.508 0 0 1-.249.061z" clip-rule="evenodd"/>
    <path fill="#FBFC2B" fill-rule="evenodd" d="M12.028 2.818l-.039.01.003.069-.05.01-.03.061.018.017c.003.003-.015.046-.012.046l.012.017.011.038.033.005.007.043.05.006.045.034.003.02.051.002.036.011.126-.016.017-.023V3.13l.067-.001.008-.057h.033l-.005-.064.03.002-.007-.029-.018-.026-.005-.04-.051-.05-.01-.068-.033-.016-.003-.044.036-.056-.003-.018-.033-.002-.029.02s-.033.005-.033.007v.016l.008.03h-.039l-.002-.048-.057-.027-.054.037-.002.041-.025.007-.026-.039-.046-.017-.026-.002v.031l.05.062-.006.038z" clip-rule="evenodd"/>
    <path fill="#C2A21F" fill-rule="evenodd" d="M12.228 3.4l.05.015.175-.02.009-.029-.002-.043.112-.018-.008-.064.066-.014-.02-.072.06-.014-.055-.051-.006-.062-.069-.065-.023-.101c-.047-.014-.047-.014-.047-.025l-.004-.063.059-.084-.039-.006-.03.028c-.007.003-.046.005-.054.009.025.045.025.045.025.049l-.072.016-.022-.082-.07-.024c.004.006-.047.037-.056.047v.061l-.05.009-.053-.058-.054-.018-.014.026.06.078-.004.062-.064.026.013.084-.08.027-.03.078c.026.022.026.024.013.065-.01.002-.01.003.008.033l.021.054.03-.003.025.074.058-.002.076.053.004.033.062-.01zm.043.046l-.133-.016-.004-.043-.063-.035-.063-.008-.023-.074-.029.008-.04-.123.024-.035-.035-.012.04-.105.08-.026-.019-.078.07-.03-.008-.038-.066-.075v-.07l.051.004.07.025.043.059.01-.06c0-.008 0-.008.083-.065l.1.04.01.079.025-.015-.014-.022c0-.041.004-.043.065-.051l.029-.025.059-.004h.013l.008.045-.058.086.007.055c0-.012.037.007.037.007l.028.106.07.064.043.14-.058.016.025.071-.065.017.008.065-.113.017.014.036-.026.044-.195.026z" clip-rule="evenodd"/>
    <path fill="#C2A21F" fill-rule="evenodd" d="M11.933 2.98l.056-.003.01.048.018.02.003.087.017.008.006-.036.04-.003.009.072-.009.012.003.01.053-.003.012-.019s.028-.002.028 0l.01.019.007-.027.03-.011.02.036.037-.005-.021-.021-.012-.046.054-.03.018.035s.02.002.018 0l-.022-.04v-.081l.04-.053.054-.006V2.92l-.054-.048-.013-.07-.03-.015-.008.01h-.036l.036.052v.032l.012.009-.001.09-.039.006-.003.049-.023.025-.012.045a.223.223 0 0 0-.024.03h-.043s-.026-.021-.026-.024l-.002-.034-.019-.006c-.003 0-.009-.039-.009-.039l-.032-.015v-.022l-.027-.012-.003-.02a.125.125 0 0 0-.016-.01v-.058l.024-.004-.014-.016-.004-.016V2.84l.02-.018-.038-.006-.033.016-.003.068-.042.01-.035.055.018.015z" clip-rule="evenodd"/>
    <path fill="#C2A21F" fill-rule="evenodd" d="M12.476 2.8l-.05.021.058.043.017.185.034-.043.086-.015-.086-.074-.026-.105-.033-.012zm-.033.28a.315.315 0 0 1 .004.057l-.039.045c-.016.047-.018.062-.026.066l.076-.051.022.022c-.004-.002-.004-.004-.004-.006l-.004-.123.016-.023c-.012.005-.037.01-.045.013zm-.053.29c-.049-.057-.049-.061-.049-.067l-.025.016.004.009-.008-.025c.037-.016.041-.016.045-.016.017.016.043.059.043.059l.037-.016-.04-.002-.019-.076.004-.004c0 .004-.004.004-.004.004l-.02.03-.073.009c-.051-.04-.051-.043-.051-.051l-.008-.044c-.021.005-.021.005-.037-.06l-.04-.015-.003-.041-.037-.008-.01-.035c-.021-.002-.021-.002-.021-.098v-.016l.05-.006.032.03-.057.005c.006.012.006.055.006.064l.066.05.004.044.03.01c.013.01.021.052.025.058.023.014.031.062.031.062l.029.022.047-.004c.022-.04.026-.04.033-.04-.01 0 .004-.054.004-.054l.04-.041-.004-.056c0-.018 0-.018.074-.026l-.033-.167-.047-.06.06-.032.067.012.027.108.078.066v.04l-.092.025-.047.067.004.103c.004 0 .026.043.03.049l-.04.024-.04-.055-.055.045.051.068-.06.037zm-.24.007l-.008-.027v-.117l-.043.015.006.035v.022l-.047-.018-.01-.136-.043-.092-.066.017-.03-.025.046-.099.064-.025c-.008-.004-.008-.068-.008-.076a.199.199 0 0 1 .059-.035c.017-.004.066.002.066.002l-.027.084-.024-.014.024-.043c-.01.004-.024 0-.028 0 .01.006-.02.014-.037.017.004.01 0 .034 0 .084l-.072.032-.037.07.084-.007.033.08.033.15-.004-.038.075-.02.03.115-.011.014.072-.008v.033l-.097.01z" clip-rule="evenodd"/>
    <path fill="#613F21" fill-rule="evenodd" d="M12.145 3.072l.03-.017v-.03l-.03-.008-.007-.008.025.003.042-.003.012-.006c-.007.013-.01.013-.012.013l-.02.01v.031l.063.008s0 .012-.002.012l-.065-.015-.04.025.004-.015z" clip-rule="evenodd"/>
    <path fill="#C2A21F" fill-rule="evenodd" d="M12.13 3.101l.013-.032.029-.018-.009-.032.015.006v-.006l.026-.01v.007l-.017.015.004.026c.062.003.062.003.062.008-.01.017-.01.017-.075.002l-.048.034zM12.307 2.88l-.036.03-.025.042-.011.001-.038-.046h-.042l-.022.057-.015-.003-.044-.046s-.013-.023-.01-.023l.108.001v-.05s-.019-.006-.027-.011c.006-.002.06-.002.06-.002l-.024.014v.045l.095.001.03-.01z" clip-rule="evenodd"/>
    <path fill="#C2A21F" fill-rule="evenodd" d="M12.23 2.923l-.161.014.086.07c.008-.01.012-.027.029-.07l.05-.004-.003-.01zm-.063.117l-.026-.004-.076-.08-.012-.043.168-.008-.015-.05.015-.01c-.008.004-.011.004-.02.006-.013-.032.016-.032.067-.032h.051l-.072.05.005.048.157-.025-.078.123-.034.004-.05-.07-.045.01c.008.005-.014.062-.018.069l-.017.012z" clip-rule="evenodd"/>
    <path fill="#613F21" fill-rule="evenodd" d="M12.115 2.907h.01c.005 0 .008.003.008.006v.009c0 .006-.003.008-.008.008h-.01c-.006 0-.008-.002-.008-.008v-.01c0-.002.002-.005.008-.005zM12.232 2.901h.009c.005 0 .008.003.008.009v.006c0 .006-.003.009-.008.009h-.009c-.002 0-.007-.003-.007-.009V2.91c0-.006.005-.009.007-.009z" clip-rule="evenodd"/>
    <path fill="#C2A21F" fill-rule="evenodd" d="M12.064 2.831l-.014-.007.005-.013a.332.332 0 0 1 .109-.031c.05-.006.086.001.127.008-.045.017-.077.01-.123.016-.043.004-.068.015-.104.027zM12.074 2.74h-.034l-.042-.046.022.003.03.013.024.03z" clip-rule="evenodd"/>
    <path fill="#C2A21F" fill-rule="evenodd" d="M12.094 2.755h-.053l-.078-.075.092.02.04.055zM12.265 2.723l.072-.055-.022-.003-.03.024-.03.006.01.028zM12.223 2.734l-.114.004.003-.013.041-.004.005-.017h.014a.19.19 0 0 0 .007.017l.04.007.004.006z" clip-rule="evenodd"/>
    <path fill="#C2A21F" fill-rule="evenodd" d="M12.097 2.75l.003-.026.054-.014-.024.015.034-.002-.003-.013.062.005.009.02-.006.01-.129.004zM12.217 2.692h-.039l-.001-.02.04.02zM12.15 2.67l-.002.022-.039.008.042-.03zM11.936 3.062l.017-.049-.015-.033-.017.048.015.034zM11.974 3.088L12 3.031l-.045.047.02.01z" clip-rule="evenodd"/>
    <path fill="#C2A21F" fill-rule="evenodd" d="M11.978 3.104l-.03-.015.042-.063-.028.06.012.003-.01-.004.026-.06-.012.079z" clip-rule="evenodd"/>
    <path fill="#FBFC2B" fill-rule="evenodd" d="M11.403 2.837l-.039.01.003.07-.045.01-.035.06.02.019-.014.046c.002 0 .012.015.012.015l.01.04.034.002.009.045.048.008.045.033.003.02.053.002.036.01.123-.015.018-.025v-.036l.067-.001.008-.056h.033l-.003-.065.032.002L11.81 3l-.018-.025-.003-.038-.053-.052-.01-.067-.035-.016-.001-.045.037-.054-.004-.022h-.033l-.03.022-.033.004v.016l.009.03h-.039l-.003-.046-.056-.028-.054.035-.003.043-.024.006-.027-.037-.045-.017-.026-.002v.03l.048.063-.004.036z" clip-rule="evenodd"/>
    <path fill="#C2A21F" fill-rule="evenodd" d="M11.604 3.418l.05.016.17-.018.016-.03v-.042l.108-.02-.006-.062.064-.016-.02-.07.061-.015-.05-.05-.012-.065-.07-.063-.02-.1c-.049-.017-.049-.017-.049-.027l-.002-.064.057-.084-.039-.004-.03.026a.414.414 0 0 1-.054.007c.025.047.025.047.025.051l-.072.016-.018-.08-.072-.024c.004.004-.047.037-.058.045.003.006 0 .05 0 .05v.011l-.043.013-.06-.06-.055-.018-.014.024.062.078-.005.064-.063.028.013.08-.079.03-.033.077c.033.022.033.022.014.073-.012-.007-.012-.005.008.024l.021.054.03-.003.026.074h.056l.082.05.002.036.059-.012zm.047.049l-.14-.018-.001-.041-.059-.035-.065-.01-.027-.074-.027.008-.043-.116a.173.173 0 0 1 .017-.04l-.029-.035.047-.085.076-.024-.014-.08.066-.027-.008-.037-.066-.079v-.068l.056.002.065.025.046.061.008-.061c0-.007 0-.007.084-.062l.098.037.01.08.025-.016-.01-.021c-.004-.043-.004-.043.06-.051l.03-.025.059-.004h.013l.008.043-.058.088.007.054c0-.01.036.006.036.006l.031.106.068.066.047.137-.062.02.025.07-.065.016.006.067-.107.017.014.034-.028.046-.193.026z" clip-rule="evenodd"/>
    <path fill="#C2A21F" fill-rule="evenodd" d="M11.308 3l.056-.002.01.048.02.016v.092l.018.007.006-.036.044-.004.005.073-.008.009.006.011.048-.001s.01-.019.013-.019l.027-.002.011.02.01-.024s.026-.014.026-.012l.02.034.038-.006-.022-.019-.008-.048.05-.028.019.034s.02.003.02 0a.274.274 0 0 1-.023-.039v-.08l.039-.054.054-.007V2.94l-.054-.05-.016-.068-.027-.015-.009.008-.035.004.035.049V2.9l.016.009-.006.088-.037.008-.003.049-.023.023-.012.047a.221.221 0 0 0-.024.03h-.043l-.026-.024-.003-.034-.018-.006c-.002 0-.01-.039-.01-.039l-.027-.015v-.022l-.032-.013-.002-.022s-.013-.007-.016-.007v-.058l.026-.005-.015-.015-.005-.017V2.86l.02-.021-.035-.003-.036.015-.003.068-.042.013-.032.052.015.016z" clip-rule="evenodd"/>
    <path fill="#C2A21F" fill-rule="evenodd" d="M11.85 2.821l-.05.02.058.044.017.183.034-.044.086-.014-.086-.072-.026-.105-.033-.012zm-.088.57c-.05-.061-.05-.061-.05-.065l-.018.016v.005l-.006-.021c.035-.018.04-.018.043-.018l.043.057.035-.016-.039-.002-.018-.072.084-.058.018.023c0-.004 0-.004-.004-.008l-.004-.12.018-.024c-.014.005-.035.009-.047.013.004.008.004.059.004.059l-.039.04c-.022.07-.022.07-.03.07l-.02.036-.073.008c-.05-.043-.05-.043-.05-.053l-.009-.044c-.025.003-.025 0-.037-.057l-.039-.018-.004-.041-.035-.008-.012-.036c-.021-.004-.021-.004-.021-.097v-.016l.05-.006.034.028-.059.01c.012.01.012.052.012.06l.06.052.004.04.033.014c.01.008.018.05.022.057.025.012.033.062.033.062 0-.003.027.022.027.022l.047-.004c.026-.04.026-.04.033-.04-.007 0 .008-.054.008-.054l.035-.041v-.056c0-.018 0-.018.07-.026l-.032-.169-.047-.06.06-.03.067.01.03.108.074.068v.037l-.09.027-.048.066.004.105a.24.24 0 0 1 .03.047l-.04.026-.04-.057-.055.047.051.068-.063.037zm-.238.005l-.008-.027v-.12l-.043.02.008.037-.004.02-.043-.018-.016-.142-.04-.086-.065.017-.027-.025.043-.099.064-.025c-.006-.004-.006-.066-.006-.076.018-.018.05-.03.057-.035.017 0 .064.004.064.004l-.023.084-.028-.018.028-.043c-.012.004-.028 0-.03.002.01.002-.017.014-.037.017v.083L11.346 3l-.037.068.084-.01.033.085.031.153-.002-.045.077-.018.027.115-.01.016.072-.012v.037l-.097.008z" clip-rule="evenodd"/>
    <path fill="#613F21" fill-rule="evenodd" d="M11.52 3.091l.03-.015v-.03l-.03-.01-.007-.008.028.003.038-.003.013-.004c-.007.013-.01.013-.013.013l-.02.01.003.03.06.007v.014l-.066-.015-.041.023.005-.015z" clip-rule="evenodd"/>
    <path fill="#C2A21F" fill-rule="evenodd" d="M11.505 3.12l.01-.03.032-.02-.009-.029.015.004v-.004l.026-.01v.006l-.018.015.006.025c.06.004.06.004.06.009-.006.018-.006.018-.074.002l-.048.033zM11.682 2.903l-.04.028-.021.042-.011.001-.036-.048-.04.002-.023.057-.019-.003-.04-.046s-.016-.023-.014-.023h.109l-.003-.051s-.013-.004-.024-.01c.005-.002.06-.002.06-.002l-.024.016v.044h.095l.03-.007z" clip-rule="evenodd"/>
    <path fill="#C2A21F" fill-rule="evenodd" d="M11.605 2.942l-.162.015.088.072c.006-.01.013-.031.027-.072l.051-.008-.004-.006zm-.061.116l-.029-.002-.076-.078-.01-.044.166-.008-.013-.048.009-.01-.013.004c-.016-.032.013-.035.064-.035h.055l-.08.05.011.051.155-.027-.08.126-.032.004-.05-.07-.039.009c.002.006-.024.065-.024.068l-.014.01z" clip-rule="evenodd"/>
    <path fill="#613F21" fill-rule="evenodd" d="M11.49 2.926h.011c.004 0 .006.005.006.009v.008c0 .006-.002.008-.006.008h-.011c-.006 0-.009-.002-.009-.008v-.008c0-.004.003-.009.009-.009zM11.607 2.92h.011c.003 0 .004.005.004.01v.007c0 .006 0 .009-.004.009h-.01c-.002 0-.008-.003-.008-.009v-.006c0-.006.006-.01.007-.01z" clip-rule="evenodd"/>
    <path fill="#C2A21F" fill-rule="evenodd" d="M11.441 2.85l-.012-.006.004-.014a.323.323 0 0 1 .108-.029c.048-.006.081.003.122.01-.042.016-.077.008-.119.014a.309.309 0 0 0-.103.025zM11.448 2.762h-.03l-.047-.046.024.002.034.013.02.03z" clip-rule="evenodd"/>
    <path fill="#C2A21F" fill-rule="evenodd" d="M11.469 2.774h-.05l-.079-.076.09.02.039.056zM11.642 2.744l.072-.055-.024-.004-.03.025-.03.006.012.028zM11.598 2.755l-.114.003.003-.012.041-.006.006-.015h.01c0 .002.01.015.01.015l.04.008.004.007z" clip-rule="evenodd"/>
    <path fill="#C2A21F" fill-rule="evenodd" d="M11.472 2.77l.003-.025.053-.014-.023.015.036-.002-.004-.013.06.005.01.019-.007.01-.128.005zM11.595 2.71l-.042.003-.002-.02.044.017zM11.526 2.692l-.003.02-.04.006.043-.026zM11.31 3.083l.02-.049-.02-.033-.014.048.014.034zM11.349 3.11l.025-.058-.046.046.02.011z" clip-rule="evenodd"/>
    <path fill="#C2A21F" fill-rule="evenodd" d="M11.354 3.125l-.031-.017.041-.061-.029.06.014.003-.01-.006.028-.059-.013.08z" clip-rule="evenodd"/>
    <path fill="#1E2788" fill-rule="evenodd" d="M12.432 4.053l.126-1.468.769-.448.594.65-.394 1.416a7.534 7.534 0 0 0-1.095-.15z" clip-rule="evenodd"/>
    <path fill="#160080" fill-rule="evenodd" d="M13.324 2.142l-.763.45-.123 1.462c.482.03.704.067 1.083.145l.395-1.411-.592-.646zm.206 2.068l-.006-.001a7.093 7.093 0 0 0-1.092-.151l.12-1.472.772-.453.602.654-.396 1.423z" clip-rule="evenodd"/>
    <path fill="#FBFC2B" fill-rule="evenodd" d="M11.726 3.386l-.036.01v.07l-.047.01-.03.06.017.019c0 .003-.014.046-.012.046l.01.015.014.04.03.002.007.045.048.007.05.035v.02h.053l.036.012.123-.014.018-.028V3.7l.07-.002.006-.055h.035l-.006-.064.03.002-.006-.03-.018-.024-.006-.039-.05-.052-.012-.07-.036-.017-.003-.042.039-.054-.003-.022h-.036l-.024.022-.037.004v.016l.012.03h-.042v-.046l-.06-.03-.05.037-.003.044-.028.005-.026-.037-.045-.019h-.024v.03l.046.062-.004.037z" clip-rule="evenodd"/>
    <path fill="#C2A21F" fill-rule="evenodd" d="M11.925 3.97l.055.015.17-.024.014-.027v-.041l.11-.018-.008-.066.066-.014-.025-.072.06-.012-.05-.051-.006-.064-.071-.063-.021-.103c-.047-.014-.047-.014-.047-.028l-.004-.06.055-.085-.041-.004-.024.026a.54.54 0 0 1-.058.007c.025.047.025.047.025.051l-.072.018-.02-.082-.069-.026c.005.006-.046.04-.056.047.004.004 0 .051 0 .051v.01l-.047.013-.055-.06-.059-.02-.015.026.066.078-.004.065-.066.026.015.082-.08.029-.035.078c.031.018.031.024.014.063-.014.002-.012.004.012.035l.017.054.033-.003.024.072.054-.002.08.053.004.037.06-.012zm.047.046l-.135-.018-.008-.043-.056-.033-.063-.01-.025-.074-.03.008-.048-.131-.004-.058.043-.086.08-.022-.018-.082.065-.027-.004-.04-.065-.077-.004-.05.004-.02.047.004.072.024.043.064.012-.064c0-.004 0-.004.085-.063l.098.04.006.08.029-.015-.014-.023c0-.043 0-.043.065-.05l.029-.024.057-.004h.015l.008.041-.06.088.009.051c0-.008.035.008.035.008l.03.11.064.064.049.139-.06.016.027.07-.067.019.004.065-.107.017.014.034-.03.046-.191.026z" clip-rule="evenodd"/>
    <path fill="#C2A21F" fill-rule="evenodd" d="M11.63 3.55l.057-.002.01.048.018.016.002.09.018.007.006-.035.044-.005.007.073-.01.01.003.011h.05l.014-.02.027-.003c0 .002.014.023.014.023l.007-.03s.029-.01.029-.008l.019.035.036-.005-.02-.024-.01-.045.05-.028.022.035h.017l-.023-.041V3.57l.041-.053.054-.006v-.02l-.054-.052-.015-.068-.032-.017-.007.01-.035.002.035.052v.032l.016.007-.003.09-.039.007-.001.05-.026.023s-.012.047-.015.047l-.021.029-.041.001s-.025-.023-.025-.025l-.006-.033-.018-.006-.006-.04-.032-.013-.002-.023-.026-.013s-.003-.02-.005-.022l-.013-.008c-.003 0-.003-.057-.003-.057l.025-.006-.012-.016-.005-.017V3.41l.02-.022-.039-.003s-.036.018-.036.016c.003 0 0 .066 0 .066l-.043.012-.032.055.014.017z" clip-rule="evenodd"/>
    <path fill="#C2A21F" fill-rule="evenodd" d="M12.174 3.37l-.051.02.057.044.023.182.028-.04.088-.017-.084-.072-.024-.107-.037-.01zm-.088.567c-.047-.056-.047-.056-.047-.062l-.017.057-.047-.036-.022.006.035-.021v.017l.03.022.008-.008-.014-.037c.039-.018.043-.018.047-.018l.039.057.039-.016h-.043l-.018-.076.084-.055.018.02c0-.002 0-.002-.004-.006v-.124l.014-.02c-.014.006-.035.01-.043.012.004.008 0 .055 0 .055l-.035.046c-.024.07-.024.07-.038.07.008.002-.013.033-.013.033l-.074.008c-.055-.041-.055-.041-.055-.051l-.002-.046c-.022.007-.025.003-.041-.06l-.04-.016-.003-.039-.035-.006-.008-.037c-.024-.004-.024-.004-.024-.097v-.014l.05-.008-.002-.002.035.028-.055.011c.005.006.005.055.005.061.021.008.021.008.03.045l.037.006.002.041.033.01a.218.218 0 0 1 .018.063c.03.01.033.06.033.06a.21.21 0 0 1 .033.022l.047-.002c.022-.043.022-.045.029-.045-.007 0 .008-.056.008-.056l.035-.037v-.06c0-.014 0-.014.069-.022l-.031-.166-.043-.062.056-.03.065.01.031.11.074.066v.037l-.09.027-.043.067.004.102.028.049-.04.028-.042-.061-.051.045.047.07-.063.035zm-.239.008l-.008-.025.005-.12-.043.018.008.035-.004.024-.046-.02-.014-.14-.039-.087-.07.017-.029-.027.045-.096.068-.025c-.008-.004-.008-.067-.008-.076.018-.02.052-.033.056-.037.016-.004.063.004.063.004l-.02.084-.027-.02.026-.04a.06.06 0 0 1-.033 0c.012.005-.018.013-.036.018a.25.25 0 0 1 0 .081l-.068.033-.045.068.092-.008.03.082.03.152V3.8l.076-.02.027.118-.01.014.076-.01-.004.03-.098.013z" clip-rule="evenodd"/>
    <path fill="#613F21" fill-rule="evenodd" d="M11.846 3.64l.027-.015v-.032l-.027-.006-.011-.011.028.005.04-.002.012-.006c-.005.014-.008.011-.01.011a.14.14 0 0 0-.02.01v.031l.063.01c-.003 0 0 .01-.003.01l-.066-.013-.039.025.006-.017z" clip-rule="evenodd"/>
    <path fill="#C2A21F" fill-rule="evenodd" d="M11.828 3.67l.013-.033.03-.018-.01-.03.015.002V3.59l.026-.01.003.005-.018.015.003.026c.064.002.064.002.064.01-.012.017-.013.017-.075.002l-.051.032zM12.007 3.452l-.039.027-.023.043-.012.003-.036-.05h-.04l-.024.059-.015-.003-.044-.046s-.013-.025-.011-.025l.107.002V3.41s-.016-.005-.025-.01h.058l-.021.014v.042l.092.002.033-.007z" clip-rule="evenodd"/>
    <path fill="#C2A21F" fill-rule="evenodd" d="M11.933 3.491l-.165.016.088.072a.936.936 0 0 1 .03-.072l.05-.008-.003-.008zm-.065.118l-.026-.004-.08-.079-.012-.045.169-.006-.016-.048.016-.012c-.007.004-.011.004-.018.006-.015-.032.018-.035.065-.035h.055l-.076.05.008.05.158-.026-.08.125-.032.004-.054-.069-.042.008c.005.004-.018.061-.018.068l-.017.013z" clip-rule="evenodd"/>
    <path fill="#613F21" fill-rule="evenodd" d="M11.816 3.475h.007c.005 0 .007.005.007.007v.01c0 .005-.002.007-.007.007h-.008c-.005 0-.008-.002-.008-.007v-.01c0-.002.003-.007.008-.007zM11.93 3.47h.011c.002 0 .007.004.007.008v.01c0 .002-.005.004-.007.004h-.01c-.004 0-.005-.002-.005-.004v-.01c0-.004.001-.008.004-.008z" clip-rule="evenodd"/>
    <path fill="#C2A21F" fill-rule="evenodd" d="M11.763 3.401l-.013-.008.003-.011a.272.272 0 0 1 .111-.032.37.37 0 0 1 .125.008c-.044.015-.077.011-.12.014a.317.317 0 0 0-.106.03zM11.774 3.31h-.033l-.044-.048.023.004.03.014.024.03z" clip-rule="evenodd"/>
    <path fill="#C2A21F" fill-rule="evenodd" d="M11.795 3.322h-.054l-.078-.075.093.02.039.055zM11.963 3.294l.074-.056-.026-.004-.024.026-.034.002.01.032zM11.923 3.302l-.113.004v-.01l.044-.005.003-.015s.013-.003.013 0l.01.013.04.007.003.006z" clip-rule="evenodd"/>
    <path fill="#C2A21F" fill-rule="evenodd" d="M11.797 3.319l.002-.025.052-.014-.023.017.036-.003-.006-.014.065.005.007.017-.007.011-.126.006zM11.918 3.26h-.042l-.002-.02.044.02zM11.851 3.24l-.003.02-.038.007.041-.026zM11.633 3.632l.02-.049-.017-.035-.015.052.012.032zM11.675 3.658l.021-.058-.045.048.024.01z" clip-rule="evenodd"/>
    <path fill="#C2A21F" fill-rule="evenodd" d="M11.679 3.674l-.033-.017.041-.061-.026.06.014.003-.011-.005.026-.063-.011.083z" clip-rule="evenodd"/>
    <path fill="#CB0028" fill-rule="evenodd" d="M12.624 3.79l-.039.045.003.04h.08c.026-.009.033-.018.039-.027.004-.013 0-.02.003-.04l-.086-.017z" clip-rule="evenodd"/>
    <path fill="#D30028" fill-rule="evenodd" d="M12.583 3.879l-.004-.044.04-.047.091.017-.003.043.003.003c-.006.01-.011.02-.042.028h-.085z" clip-rule="evenodd"/>
    <path fill="#CB0028" fill-rule="evenodd" d="M12.815 3.9l-.036.025-.003.036.072.006c.025-.003.027-.007.033-.018.01-.013.008-.013.01-.028l-.076-.021z" clip-rule="evenodd"/>
    <path fill="#D30028" fill-rule="evenodd" d="M12.848 3.972l-.072-.005-.002-.042.035-.03.084.02-.012.034.006.003c-.009.012-.014.015-.04.02z" clip-rule="evenodd"/>
    <path fill="#CB0028" fill-rule="evenodd" d="M13.13 3.806l-.04.04.003.029.078.003c.022-.006.02-.003.028-.02.007-.012.005-.015.007-.032l-.077-.02z" clip-rule="evenodd"/>
    <path fill="#D30028" fill-rule="evenodd" d="M13.17 3.883l-.076-.004-.009-.034.042-.041.08.016-.009.038.006.003c-.011.015-.011.015-.033.022z" clip-rule="evenodd"/>
    <path fill="#CB0028" fill-rule="evenodd" d="M13.35 3.876l-.044.037v.036l.08.008c.025-.006.028-.012.036-.024.007-.011.002-.013.004-.03l-.076-.027z" clip-rule="evenodd"/>
    <path fill="#D30028" fill-rule="evenodd" d="M13.387 3.961l-.08-.007-.004-.041.041-.038.085.022-.003.04c-.01.011-.015.02-.039.024z" clip-rule="evenodd"/>
    <path fill="#CB0028" fill-rule="evenodd" d="M12.812 2.914l.15.102c.03-.024.087-.01.114-.003.038.011.069.035.104.042a.702.702 0 0 0 .206.023c.06-.007.11-.038.156-.062V3h-.03a.389.389 0 0 1-.167.012c-.051-.006-.064-.03-.14-.054l-.01-.012c.096.003.117 0 .155-.016.036-.01.053-.033.076-.05v-.016h-.03c-.036.022-.06.028-.113.022-.051-.006-.097-.034-.132-.035-.035 0-.035-.016-.068-.02a.559.559 0 0 0-.167.017c-.062.02-.074.035-.104.066z" clip-rule="evenodd"/>
    <path fill="#BA0019" fill-rule="evenodd" d="M13.35 3.084a.766.766 0 0 1-.172-.023c-.019-.003-.036-.013-.054-.021a.284.284 0 0 0-.052-.022c-.053-.015-.086-.013-.107 0l-.156-.098a.164.164 0 0 1 .105-.076.609.609 0 0 1 .168-.016.123.123 0 0 1 .036.009c.009.006.017.01.034.01.019 0 .036.007.058.015a.248.248 0 0 0 .072.018c.052.006.075.003.113-.02v-.002l.03.004-.001.004.002-.003v.005l-.004.002-.011.03c-.016.013-.033.028-.06.035-.03.014-.048.016-.092.016h-.025l.025-.01a.18.18 0 0 0 .088-.016.128.128 0 0 0 .056-.034l.02-.02a.267.267 0 0 1-.216 0 .236.236 0 0 0-.055-.014.065.065 0 0 1-.038-.01.093.093 0 0 0-.032-.01.558.558 0 0 0-.165.016c-.054.015-.066.03-.09.054l.138.103c.01-.015.054-.018.11 0 .019.003.036.011.055.018a.151.151 0 0 0 .05.023c.078.018.15.028.206.02a.325.325 0 0 0 .132-.047l-.005-.018a.357.357 0 0 1-.168.012.209.209 0 0 1-.067-.023.37.37 0 0 0-.077-.03l.018-.007.063.027c.021.01.036.02.063.024.045.004.108.01.166-.014h.03l-.017.036c-.042.021-.085.046-.136.05-.013.002-.025.003-.038.003z" clip-rule="evenodd"/>
    <path fill="#82373B" fill-rule="evenodd" d="M12.842 2.892c.013.004.028.008.042.015.012.005.006.005.02.015-.002-.013 0-.013-.008-.02-.01-.01-.023-.02-.033-.025l-.02.015zM12.968 3c0-.012-.007-.023-.013-.035-.005-.012-.008-.022-.018-.032.013.003.018.007.028.02.01.012.01.024.013.042l-.01.006zM12.995 2.84c.006.01.012.015.018.036l.006.04c-.003-.012 0-.026 0-.04-.003-.013-.009-.025-.01-.036h-.014zM13.118 2.848l.006.073.008-.068-.014-.005zM13.09 3c.004-.012 0-.025 0-.036a.685.685 0 0 0-.01-.036c.014.01.016.024.023.037a.048.048 0 0 1-.012.034zM13.216 2.968s.003.024-.002.041c-.005.02-.008.02-.021.03.016-.01.029-.015.033-.026.003-.018-.007-.043-.01-.045zM13.24 2.943c-.011.003-.011-.033-.018-.053.004-.001.007 0 .012.01.006.002.003.028.006.043zM13.324 2.93l.006-.03h.009v.022c0 .003-.012.009-.015.009zM13.318 3.01c.006.01.013.021.015.032.003.01-.002.015-.009.03l.015.001c.008-.011.011-.02.008-.03 0-.012-.005-.018-.016-.028l-.013-.005z" clip-rule="evenodd"/>
    <path fill="#83353B" fill-rule="evenodd" d="M13.342 3.079l-.018-.002.005-.035-.015-.03c.003 0 .007.002.01.004h-.007l.022.026c0 .01-.003.016-.008.027l.008.004-.006-.003c.009-.01.012-.018.009-.028l-.011-.023c.017.005.022.012.022.023 0 .01 0 .02-.008.034l-.003.003z" clip-rule="evenodd"/>
    <path fill="#82373B" fill-rule="evenodd" d="M13.422 3.019l.004.043.01-.007-.001-.036h-.013z" clip-rule="evenodd"/>
    <path fill="#FBFC2B" fill-rule="evenodd" d="M12.801 2.92c-.033.014-.045.032-.06.048l-.099-.051c-.015.015-.02.033-.015.052.009.02.039.05.062.062-.005.03-.015.05-.023.073-.013.026-.033.059-.036.07 0 .01-.003.036.015.044.015.006.075-.005.095-.004a.106.106 0 0 0-.011.036c.003.008.008.01.024.01-.003.011-.013.023-.007.03.012.008.025.008.037.006-.007.007-.018.017-.03.031a.382.382 0 0 0-.049.05c-.015.023-.018.045.013.044-.01.013-.02.023-.02.036.002.013.01.02.03.013-.013.03-.005.057 0 .088-.01.024-.007.043-.01.072-.02.013-.023.028-.039.055-.012.027-.039.036-.05.096l.086.022c.003-.012.015-.02.018-.033a.063.063 0 0 0 .003-.04.598.598 0 0 0 .063-.108c.02-.01.033-.018.05-.018.012 0 .022.008.038.018-.008.024-.026.05-.026.084v.092c-.005.02-.03.02-.043.091l.08.022c.014-.023.035-.028.04-.036l.005-.097c.01-.044.075-.083.075-.13.023 0 .03.002.04-.002.013-.006.016-.012.025-.022.003.016.014.016.024.016a.12.12 0 0 0 .038-.018c.006.008.008.015.022.018.009.003.043-.003.056-.004l-.065.106c-.003.011.003.018-.005.028-.002.012-.013.017-.017.028l.074.017.01-.033c.018-.005.03-.01.039-.019.007-.008.007-.03.012-.04a.887.887 0 0 0 .093-.091c.017.004.042.019.053.042a.22.22 0 0 1-.008.103l-.045.076-.006.013.075.025.048-.036v-.052c.026-.043.06-.066.093-.093 0-.001.005-.06.002-.06-.008-.004-.015-.001-.015-.014a.177.177 0 0 1 0-.054c.003-.006.013-.013.013-.02-.013-.011-.008-.05-.006-.08 0-.033.047-.072.05-.09l.006-.037c-.005-.007-.012-.014-.012-.02 0-.008.007-.019.012-.027l.012-.015v-.089c-.003-.008-.011-.022-.02-.025-.006 0-.02.009-.027.017l-.044.032a.114.114 0 0 1-.074 0h-.056c-.028.01-.044.011-.072-.001h-.033a.197.197 0 0 1-.036.016.076.076 0 0 1-.036 0c-.087.006-.064.013-.09.017-.017-.002-.012-.014-.09-.014l-.027-.008a.285.285 0 0 1-.093-.113c.077-.024.11-.046.136-.1l-.112.003-.16-.107z" clip-rule="evenodd"/>
    <path fill="#E8D629" fill-rule="evenodd" d="M12.753 3.266l-.028-.014c0-.008.001-.02.007-.033-.003 0-.015.003-.025.003-.017.002-.033.002-.047.002-.039-.01-.036-.039-.033-.052a.838.838 0 0 1 .033-.07.239.239 0 0 0 .023-.07.139.139 0 0 1-.059-.06.056.056 0 0 1 .015-.06l.066.034-.066-.023a.045.045 0 0 0-.006.044.213.213 0 0 0 .057.061c-.001.034-.012.053-.019.076-.005.014-.014.027-.02.039-.006.011-.013.025-.013.03-.003.018-.005.034.007.04.03.001.045 0 .06-.003l.033-.001.015.057zm-.054.14c-.013-.009-.009-.02 0-.031.008-.01.02-.025.039-.04l.04-.041c-.016.007-.025.007-.035 0l.01-.028v.007l.029.02-.017.029c-.036.036-.051.048-.058.06-.008.01-.01.019-.008.025zm.015.216c0-.034 0-.049.008-.067-.008-.036-.012-.06 0-.087-.02.01-.029.003-.032-.01 0-.01.006-.02.014-.03.003.014-.002.02-.002.03l.009-.006.018.02c-.01.026-.004.046 0 .07-.004.031-.004.046-.004.064-.006.006-.008.012-.011.016zm.437.148h-.001l.001-.03.068-.107c-.008.01-.032.013-.045.013l-.032-.017c-.028.022-.05.035-.064.002l.028.005c.003 0 .013-.001.036-.018l.023.018c.02 0 .046-.004.057-.005l-.07.139zm.284.127l-.08-.026.05-.095c.009-.021.011-.058.009-.103a.088.088 0 0 0-.052-.037.637.637 0 0 1-.09.091l-.013.04a.062.062 0 0 1-.03.019l-.016.031-.078-.015.016-.03-.003.016.061.021.004-.026c.027-.013.034-.016.04-.023l.015-.042a.718.718 0 0 0 .089-.09c.029.003.054.018.065.044a.26.26 0 0 1-.008.108l-.049.075.07.034.042-.037v-.048a.266.266 0 0 1 .078-.087c.014-.053.014-.063.014-.066a.102.102 0 0 1-.014-.07c0-.03.005-.065.007-.1 0-.022.02-.046.036-.066.007-.01.016-.02.017-.026l.003-.034c-.013-.028-.007-.04 0-.048l.01-.103h-.002l-.035-.004-.045.032a.111.111 0 0 1-.075.002h-.057c-.027.007-.047.01-.075-.003l-.03.001a.117.117 0 0 1-.036.017l-.036-.005v.005c-.059.004-.066.008-.072.011h-.03c-.011-.003-.02-.008-.077-.008l-.03-.011a.28.28 0 0 1-.096-.113c.081-.03.113-.054.135-.107l-.106.01-.163-.105c-.02.009-.033.023-.045.035l-.008-.003a.105.105 0 0 1 .056-.041l.162.107.11-.006c-.02.063-.054.088-.135.113.033.045.06.082.092.103l.03.007c.054 0 .066.006.078.01.03-.004.037-.007.1-.013l.035.001c.008-.001.02-.008.03-.012l.039-.003a.09.09 0 0 0 .07 0h.058c.036.008.051.004.072 0l.043-.033c.003-.003.018-.017.029-.017.012.002.023.023.023.03l.002.088-.024.042.008.058a.106.106 0 0 1-.018.029c-.014.018-.033.04-.033.062-.002.02-.007.065.006.077-.016.034-.018.065-.016.076.017.014.02.015.016.068-.045.042-.072.066-.093.101l-.002.05-.049.042zm-.536.018l-.081-.02c.004-.052.016-.068.027-.08l.01-.11c0-.023.008-.042.015-.06l-.022-.033a.091.091 0 0 0-.047.014c-.01.025-.046.08-.061.105 0 .005.003.026-.002.042l-.024.033-.087-.02c.003-.047.018-.065.03-.08l.026-.042a.101.101 0 0 1 .028-.038c-.007.022-.012.031-.018.043-.015.029-.019.037-.027.044a.13.13 0 0 0-.034.07l.085.016.01-.029c.002-.011.005-.025.002-.04.018-.03.054-.082.065-.11.036-.02.06-.023.082-.008.013.02.008.028.005.04-.008.015-.018.033-.018.054v.092c-.02.035-.033.05-.041.09l.074.016c.007-.012.018-.02.026-.025l.016-.1c.004-.022.023-.044.035-.062.021-.022.037-.045.037-.069h.022l.008-.005.018.007-.039.001c0 .025-.018.049-.036.073-.015.018-.03.037-.033.057l-.008.094a.133.133 0 0 0-.04.037l-.003.003z" clip-rule="evenodd"/>
    <path fill="#624E0F" fill-rule="evenodd" d="M12.762 3.062l.032.014c.002.005.012.008.018.01.005 0 .007-.005.012-.01l.03-.014c-.018-.003-.024-.014-.04-.014-.02 0-.031.01-.052.014z" clip-rule="evenodd"/>
    <path fill="#624E0F" fill-rule="evenodd" d="M12.812 3.091l-.052-.026h.002v-.003h.006c.026-.015.033-.017.047-.017l.027.013-.027-.006-.042.013.039.02v-.004.005l.006-.01.03-.015.007.004-.043.026z" clip-rule="evenodd"/>
    <path fill="#C2A21F" fill-rule="evenodd" d="M12.822 3.439c0 .003-.005.004-.007.003a.252.252 0 0 0-.024-.094c.013.02.024.057.03.091zM13.007 3.443c.007.002.014.002.017-.001.003-.009-.005-.02-.008-.027-.01-.022-.018-.046-.022-.055-.002-.005-.008-.002-.008.002.008.02.018.074.02.081zM13.109 3.43c0 .006-.015 0-.018-.007 0-.007-.021-.083-.016-.086.003-.002.016.025.02.038 0 .007.01.033.014.056zM13.094 3.584c0 .005.012 0 .017-.004l.036-.053c.003-.01.019-.069.013-.069l-.03.06c-.019.033-.036.062-.036.066z" clip-rule="evenodd"/>
    <path fill="#C2A21F" fill-rule="evenodd" d="M13.096 3.591l-.005-.003c-.003-.007-.003-.01.033-.072l.02-.038c.003-.003.003-.003.006-.003l-.018.046a.293.293 0 0 0-.033.063l-.003-.003v.006l.03-.04a.234.234 0 0 0 .025-.069c.014.006 0 .05-.001.05l-.054.063zM13.196 3.552c-.006.002.01-.051.01-.061.004-.015.007-.043.013-.075.007.045 0 .1-.023.136z" clip-rule="evenodd"/>
    <path fill="#C2A21F" fill-rule="evenodd" d="M13.196 3.56l-.006-.005c-.003-.003-.003-.007.006-.043l.017-.098c.019.05.01.103-.012.14l-.005.007zM13.258 3.389a.32.32 0 0 1-.044-.073c.002-.002.035.048.041.055.003.005.004.01.003.018zM13.36 3.443c-.003-.004-.003-.025-.007-.051-.008-.027-.02-.052-.017-.059.003-.003.009 0 .017.003.001.014.007.07.014.103 0 .003-.002.004-.007.004zM13.432 3.376c-.003-.003.01.027.02.06.007.035.016.095.018.091.005-.003.005-.01.012-.011.012-.002.05 0 .048-.002-.024-.022-.047-.038-.06-.06-.018-.024-.029-.054-.038-.078z" clip-rule="evenodd"/>
    <path fill="#C2A21F" fill-rule="evenodd" d="M13.467 3.534h-.005l-.003-.03c-.004-.019-.006-.047-.012-.065-.006-.018-.013-.037-.015-.047l.002.001c-.002-.004-.005-.007-.005-.011l.018.025c.008.014.015.029.025.043a.271.271 0 0 0 .05.049l-.055.035z" clip-rule="evenodd"/>
    <path fill="#fff" fill-rule="evenodd" d="M13.795 3.267a6.03 6.03 0 0 1 1.208.394l-.324.664c-.185-.07-.361-.125-.544-.183-.178-.057-.353-.111-.533-.167l.193-.708z" clip-rule="evenodd"/>
    <path fill="#fff" fill-rule="evenodd" d="M13.795 3.273l-.19.702.168.046.365.115.08.026c.15.049.302.1.456.158l.325-.662c-.166-.067-.366-.15-.583-.22a5.59 5.59 0 0 0-.621-.165zm.884 1.06l-.002-.003a8.773 8.773 0 0 0-.461-.158l-.082-.026a19.29 19.29 0 0 0-.364-.114l-.168-.053.191-.713a5.23 5.23 0 0 1 1.21.39l-.324.676z" clip-rule="evenodd"/>
    <path fill="#CB0028" fill-rule="evenodd" d="M13.755 3.424s.305.068.596.164c.293.097.58.218.58.218-.003 0-.186.381-.186.381a8.473 8.473 0 0 0-1.103-.36l.113-.403z" clip-rule="evenodd"/>
    <path fill="#D30028" fill-rule="evenodd" d="M14.748 4.193h-.005a8.146 8.146 0 0 0-1.101-.36l.107-.41c.015-.002.313.067.602.16.194.062.526.19.577.219-.026-.003-.293-.116-.578-.21-.29-.095-.592-.161-.598-.164l-.105.399c.192.04.38.098.554.157.191.061.37.128.54.195.164-.333.181-.373.187-.377a.02.02 0 0 1 .007.004c-.007.013-.136.281-.187.383v.004z" clip-rule="evenodd"/>
    <path fill="#000" fill-rule="evenodd" d="M13.78 3.612c.029-.018.048-.023.067-.05h.105l.003.039c.027.011.04.026.069.04.025.013.064.023.09.036l.23.02c.03.006.074.019.102.034a.15.15 0 0 1 .06.063c.048.015.093.025.142.033.05.008.11.011.157.013.025.008.025.021.013.035 0 0-.027.033-.099.033-.071.003-.15-.04-.186-.033.003.02.039.065.082.085v.102l-.02.02-.023-.016c.017-.023.012-.053.004-.078-.014-.024-.014-.031-.046-.033a.252.252 0 0 1-.105-.047l-.014.003c-.012.014-.022.028-.045.038l-.042-.001s-.106-.024-.106-.026c0 0-.002-.017 0-.018.005-.002.036-.002.038-.002.023.009.07.009.07.009v-.04l.069-.005c-.012-.049-.018-.08-.084-.092l-.203.007v.028a.563.563 0 0 0-.19.008c-.025.002-.066.016-.085.016l-.019-.006c-.014-.004-.014-.008-.008-.021.087-.004.102-.012.128-.025.002-.008-.008-.027-.012-.027-.058-.002-.1 0-.116-.002-.024-.007-.057-.021-.057-.021s-.003-.02 0-.02l.036.007c.036.009.1.006.117-.002v-.03c0-.014-.01-.028-.012-.028a.84.84 0 0 0-.082-.007c-.033-.007-.028-.025-.028-.039z" clip-rule="evenodd"/>
    <path fill="#000" fill-rule="evenodd" d="M13.847 3.91c.051-.02.064-.033.084-.045l-.053-.027-.034.002-.039-.002c-.01-.004-.059-.026-.059-.037l.008-.012a.13.13 0 0 0 .051.033H13.877l.044.004c.007.004.02.033.017.047-.022.02-.039.03-.09.037zm.545.066c-.018-.058-.026-.093-.081-.107l-.203.006.007.031c-.028.008-.055.004-.086.004a.29.29 0 0 0-.108.016c-.016.002-.03.01-.046.013a.094.094 0 0 1-.042.012l-.035-.023.017-.006.018.021v-.008a.106.106 0 0 0 .042-.01c.015-.003.03-.01.044-.01a.326.326 0 0 1 .11-.019c.03 0 .061.004.082.006l-.012-.03.212-.017c.066.016.075.06.087.12l-.006.001zm-.023.138l-.049-.004c-.107-.038-.107-.038-.107-.042.005-.033.007-.035.043-.035a.27.27 0 0 0 .07.012l-.006-.049.046-.01-.04.016.004.051c-.004.005-.053.005-.076-.004h-.034c.005.017.103.048.103.048l.046.003a.124.124 0 0 0 .036-.05c.005.003.01.003.014.005-.017.026-.027.043-.05.059zm.226.186l-.026-.024a.188.188 0 0 0 .002-.111c-.014-.037-.017-.041-.04-.043a.221.221 0 0 1-.097-.06c.048.027.069.038.096.044.03.002.034.016.046.04.014.054.02.095 0 .128l.02.018-.006-.006.02-.027v-.137a.19.19 0 0 1-.082-.12c.031-.01.053 0 .08.012.035.011.074.03.111.03.07-.003.093-.048.093-.048-.054-.039-.115-.043-.164-.053a.761.761 0 0 1-.145-.047.217.217 0 0 0-.06-.09.328.328 0 0 0-.1-.044l-.23-.03a.465.465 0 0 1-.046-.027.345.345 0 0 1-.046-.024c-.015-.007-.023-.019-.036-.029l-.033-.027-.005-.059-.1.006c-.011.027-.026.037-.046.051-.016.04-.016.051.007.058.006-.007.08.008.084.012a.079.079 0 0 1 .016.043v.043c-.025.026-.09.022-.123.014l-.023-.014.005-.008c.084.028.119.012.132 0l-.001-.033c-.015-.035-.07-.043-.09-.043-.033-.01-.033-.033-.033-.056v-.004l.02-.022a.116.116 0 0 0 .046-.053l.11-.004.008.063c.011 0 .02.012.034.02.01.01.017.021.034.03.01.01.027.016.042.024l.046.028.229.027c.03.006.077.023.105.051a.2.2 0 0 1 .06.086c.045.02.09.033.139.043.05.011.11.015.157.02h.005l.02.023c-.01.033-.036.084-.11.084a.3.3 0 0 1-.115-.03.202.202 0 0 0-.065-.017c0 .017.034.08.077.106v.154l-.022.032z" clip-rule="evenodd"/>
    <path fill="#fff" fill-rule="evenodd" d="M14.225 3.852a.31.31 0 0 0 .101.018l.069-.003c-.012-.05-.018-.082-.084-.093l-.203.007v.028l.117.043z" clip-rule="evenodd"/>
    <path fill="#000" fill-rule="evenodd" d="M14.326 3.875a.354.354 0 0 1-.103-.017 1.907 1.907 0 0 0-.115-.045l-.008-.032.211-.01c.066.01.074.04.087.084l-.006.002c-.018-.042-.026-.067-.08-.077l-.204.004.007.022c.047.016.075.03.095.037.045.015.07.017.116.023l.05-.006-.05.015z" clip-rule="evenodd"/>
    <path fill="#1E2788" fill-rule="evenodd" d="M10.181 4.206l-.37-1.387.563-.688.785.454.136 1.471c-.401.031-.663.07-1.114.15z" clip-rule="evenodd"/>
    <path fill="#160080" fill-rule="evenodd" d="M10.373 2.135l-.556.687.365 1.378a10.12 10.12 0 0 1 1.113-.15l-.138-1.463-.784-.452zm-.197 2.078v-.005l-.37-1.386.564-.696.794.454.136 1.475c-.412.036-.678.078-1.118.156l-.006.002z" clip-rule="evenodd"/>
    <path fill="#FBFC2B" fill-rule="evenodd" d="M8.865 3.05l.132.105-.024.186.173-.072.138.106.018-.17.144-.056-.118-.115.025-.17s-.171.062-.171.06a2.63 2.63 0 0 0-.124-.102l-.028.16-.165.069z" clip-rule="evenodd"/>
    <path fill="#F4C627" fill-rule="evenodd" d="M9.262 3.439l.191.143.026-.225.207-.089-.17-.14.035-.247c-.228.098-.23.098-.234.098-.016-.012-.168-.143-.178-.148.006.005-.03.218-.03.218l-.24.104.194.132-.033.267.232-.113zm.207.174l-.207-.154-.24.1.025-.27-.188-.136.239-.113c.033-.217.033-.221.037-.221.01-.002.186.14.188.14l.232-.085-.025.246.166.153-.205.094-.022.246z" clip-rule="evenodd"/>
    <path fill="#F4C427" fill-rule="evenodd" d="M8.866 3.052l.577.094-.144.058-.138-.098s.126.264.123.263c-.002 0-.134-.097-.138-.102l.013-.16-.183.233.026-.186-.136-.102z" clip-rule="evenodd"/>
    <path fill="#F4C627" fill-rule="evenodd" d="M9.027 2.985l.134.116-.103-.28-.03.164z" clip-rule="evenodd"/>
    <path fill="#F4C627" fill-rule="evenodd" d="M9.18 2.932c.002.002-.021.169-.018.169.012-.02.191-.233.188-.233 0 0-.165.066-.17.064z" clip-rule="evenodd"/>
    <path fill="#FBFC2B" fill-rule="evenodd" d="M14.363 2.815l.036.167-.14.124.178.058.037.17.125-.12.147.048-.015-.164.13-.113s-.172-.06-.172-.063c.003 0-.025-.157-.027-.157-.003 0-.126.103-.126.103l-.173-.053z" clip-rule="evenodd"/>
    <path fill="#F4C627" fill-rule="evenodd" d="M14.408 2.845l.06.227-.205.181.254.065.051.229.172-.157.214.067-.037-.22.189-.165c-.24-.077-.24-.077-.245-.08 0-.012-.03-.211-.035-.223 0 .012-.17.15-.17.15l-.248-.074zm.152.73l-.052-.25-.252-.072.197-.185-.051-.23.254.068c.17-.147.17-.147.175-.147.008.008.05.227.043.234.015.002.24.08.24.08l-.182.168.026.222-.218-.06-.18.173z" clip-rule="evenodd"/>
    <path fill="#F4C627" fill-rule="evenodd" d="M14.366 2.819l.38.441-.148-.047-.041-.165-.078.28-.039-.164.117-.118s-.296.062-.296.06c.003 0 .144-.123.144-.123l-.04-.164zM14.536 2.868l.027.174.101-.28-.128.106z" clip-rule="evenodd"/>
    <path fill="#F4C627" fill-rule="evenodd" d="M14.686 2.922c0 .003-.123.118-.123.118.02-.006.298-.055.296-.055 0 0-.17-.058-.173-.063z" clip-rule="evenodd"/>
    <path fill="#CB0028" fill-rule="evenodd" d="M9.814 2.825c.2-.097.426-.172.662-.206a4.88 4.88 0 0 1 .688-.033l.029.363c-.182.003-.319 0-.643.04a2.446 2.446 0 0 0-.649.16l-.087-.324z" clip-rule="evenodd"/>
    <path fill="#D30028" fill-rule="evenodd" d="M11.159 2.588l-.04.008c-.242 0-.441.006-.644.047a1.73 1.73 0 0 0-.658.287l.087.438c.192-.105.326-.16.646-.22.294-.055.435-.055.594-.055h.05c-.007-.004-.036-.505-.036-.505zm-1.26.798l-.09-.46a1.79 1.79 0 0 1 .666-.299c.203-.039.402-.047.643-.047h.046c.006.008.036.513.036.517l-.056.01c-.16 0-.297 0-.594.054-.323.065-.454.117-.649.223l-.002.002z" clip-rule="evenodd"/>
    <path fill="#CB0028" fill-rule="evenodd" d="M9.985 3.466c-.002 0 .104.382.104.382a5.695 5.695 0 0 1 1.173-.17l-.033-.375c-.2-.01-.428-.01-.634.016-.204.03-.404.076-.61.147z" clip-rule="evenodd"/>
    <path fill="#D30028" fill-rule="evenodd" d="M10.98 3.304c-.139 0-.269.012-.382.033-.201.035-.4.106-.61.204.003.012.063.315.102.522a3.98 3.98 0 0 1 .58-.158c.197-.041.41-.063.592-.08l-.038-.517c-.075 0-.16-.004-.245-.004zm-.897.772h-.002c-.102-.54-.102-.542-.1-.546.213-.103.413-.169.614-.208.186-.032.423-.038.634-.022l.037.532c-.186.024-.396.045-.596.086a4.184 4.184 0 0 0-.581.158h-.006z" clip-rule="evenodd"/>
    <path fill="#fff" fill-rule="evenodd" d="M9.066 4.648h5.58v3.62c-.14 1.408-1.478 2.463-2.705 2.454-1.32.059-2.78-1.036-2.883-2.468l.008-3.606z" clip-rule="evenodd"/>
    <path fill="#CB0028" fill-rule="evenodd" d="M14.628 4.648l-5.562.02.012 3.586c.107 1.483 1.613 2.503 2.863 2.447 1.162 0 2.541-1 2.687-2.435V4.648zm-2.785 6.098c-1.242 0-2.7-1.024-2.807-2.492l.013-3.606 5.597-.019.021 3.639c-.146 1.459-1.549 2.475-2.71 2.475-.048 0-.083.003-.114.003z" clip-rule="evenodd"/>
    <path fill="#CB0028" fill-rule="evenodd" d="M9.185 4.774h5.345v3.47c-.135 1.35-1.418 2.36-2.592 2.351-1.266.058-2.665-.991-2.767-2.363l.014-3.458z" clip-rule="evenodd"/>
    <path fill="#CB0028" fill-rule="evenodd" d="M14.51 4.774l-5.325.02.007 3.438c.105 1.42 1.553 2.396 2.746 2.343 1.114 0 2.437-.956 2.572-2.334V4.774zm-2.667 5.843c-1.191 0-2.587-.977-2.69-2.385l.01-3.458 5.367-.02.018 3.49c-.138 1.397-1.48 2.37-2.597 2.37l-.108.003z" clip-rule="evenodd"/>
    <mask id="a" width="24" height="14" x="0" y="0" maskUnits="userSpaceOnUse">
        <path fill="#fff" fill-rule="evenodd" d="M0 14h23.715V0H0v14z" clip-rule="evenodd"/>
    </mask>
    <g fill-rule="evenodd" clip-rule="evenodd" mask="url(#a)">
        <path fill="#fff" d="M10.26 5.949h1.062V4.79H10.26v1.158zM13.458 8.268v1.143l.6.003c.289-.44.413-.869.442-1.146h-1.042z"/>
        <path fill="#fff" d="M13.458 8.273l.004 1.138.592-.003c.36-.545.428-1.011.44-1.14l-.542.005h-.494zm.602 1.147l-.602-.003-.006-1.149.5-.005h.548c-.008.137-.079.606-.438 1.154l-.002.003zM12.394 9.422v1.098c.46-.093.838-.326 1.053-.484l-.003-.614h-1.05z"/>
        <path fill="#fff" d="M13.438 9.422l-1.045.007.003 1.086c.446-.09.815-.314 1.048-.482l-.006-.611zm-1.048 1.106V9.422l1.054-.006.009.62c-.24.176-.61.399-1.057.49l-.006.002zM10.267 9.422l.003.614c.362.259.777.416 1.051.473l-.002-1.086-1.052-.001z"/>
        <path fill="#fff" d="M11.313 9.423l-1.046.006.008.607c.365.259.776.411 1.041.469l-.003-1.082zm.013 1.094l-.004-.002a3.002 3.002 0 0 1-1.055-.475l-.004-.618 1.056-.003.007 1.098zM9.204 8.268c.033.449.233.847.43 1.13l.62.013V8.268h-1.05z"/>
        <path fill="#fff" d="M10.25 8.268l-1.045.005c.04.5.29.917.436 1.12l.61.012V8.268zm.01 1.148h-.005l-.62-.014c-.15-.206-.4-.627-.436-1.134l1.056-.005.005 1.153zM9.198 7.105h1.062V5.949H9.198v1.156zM11.322 7.105h1.065V5.949h-1.065v1.156zM12.387 5.943h1.063V4.787h-1.063v1.156zM13.452 7.105h1.063V5.949h-1.063v1.156zM10.26 8.261h1.062V7.105H10.26V8.26zM12.387 8.261h1.063V7.105h-1.063V8.26zM11.322 9.42h1.065V8.261h-1.065v1.157z"/>
        <path fill="#C2A21F" d="M12.909 3.425c-.006.006-.013-.05-.015-.059-.005-.016-.013-.04-.022-.075a.21.21 0 0 1 .037.134z"/>
        <path fill="#C2A21F" d="M12.909 3.43c-.008 0-.01-.005-.015-.044l-.027-.092a.164.164 0 0 1 .047.132l-.005.005z"/>
    </g>
</svg>
