<svg xmlns="http://www.w3.org/2000/svg" width="100" height="83" fill="none" viewBox="0 0 100 83">
    <path fill="#fff" fill-rule="evenodd" d="M68.43 75.284h-8.186c-.912 0-1.65-.746-1.65-1.665 0-.92.738-1.666 1.65-1.666h8.186c.032 0 .073-.003.126-.009l.19-.01h7.113c5.631-.423 10.878-3.026 14.79-7.355 3.91-4.31 6.05-9.847 6.05-15.62-.019-10.387-7.09-19.706-16.823-22.276a1.66 1.66 0 0 1-1.21-1.333 26.34 26.34 0 0 0-8.212-15.096 26.249 26.249 0 0 0-17.78-6.923 26.232 26.232 0 0 0-14.3 4.222 26.268 26.268 0 0 0-8.548 9.02 1.646 1.646 0 0 1-1.733.806 14.366 14.366 0 0 0-2.64-.251c-7.542 0-13.68 6.155-13.68 13.706 0 .934.096 1.878.287 2.873a1.673 1.673 0 0 1-.654 1.666c-5.069 3.697-8.105 9.63-8.105 15.896 0 5.115 1.9 10.084 5.369 14.024 3.56 4.033 8.226 6.389 13.084 6.66h24.04c.912 0 1.651.746 1.651 1.666 0 .92-.739 1.665-1.65 1.665H21.912l-.25-.002c-5.843-.323-11.325-3.091-15.46-7.775C2.2 62.96 0 57.205 0 51.27c0-6.993 3.22-13.618 8.647-17.964a17.779 17.779 0 0 1-.176-2.471c0-9.396 7.621-17.038 16.982-17.038.695 0 1.399.045 2.1.13a29.614 29.614 0 0 1 9.037-9.175A29.51 29.51 0 0 1 52.674 0c7.416 0 14.531 2.77 20 7.79a29.679 29.679 0 0 1 9.054 15.962C92.388 27.066 99.98 37.423 100 48.956c0 6.61-2.45 12.95-6.913 17.87-4.49 4.97-10.547 7.964-17.05 8.434l-.118.004h-7.087a4.19 4.19 0 0 1-.402.02zm-13.853-37.55l13.292 13.328a1.64 1.64 0 0 0 2.335-.008 1.676 1.676 0 0 0-.008-2.355L55.98 34.444a41.126 41.126 0 0 0-.477-.491c-.865-.869-1.562-1.336-2.576-1.336-1.03 0-1.748.484-2.618 1.37-.119.121-.456.478-.457.48L35.656 48.699a1.676 1.676 0 0 0-.007 2.355 1.64 1.64 0 0 0 2.334.008l13.293-13.328v43.6c0 .92.739 1.666 1.65 1.666.912 0 1.65-.746 1.65-1.666v-43.6z" clip-rule="evenodd"/>
</svg>
