<svg xmlns="http://www.w3.org/2000/svg" width="165" height="238" fill="none" viewBox="0 0 165 238">
    <g fill-rule="evenodd" clip-rule="evenodd" filter="url(#a)">
        <path fill="#fff" d="M4.007 2.026l156.78-.023c-3.991 41.311-5.985 80.636-5.98 117.976a1050.214 1050.214 0 0 0 6.012 111.986l-156.78.025c3.478-35.337 5.213-72.667 5.206-111.988A1338.634 1338.634 0 0 0 4.007 2.026z"/>
        <path fill="#D9452D" d="M22.363 2.023a1335.417 1335.417 0 0 1 3.679 98.813c.005 39.321-1.73 76.65-5.206 111.987l138.106-.019c.568 6.388 1.195 12.775 1.882 19.163L4.04 231.99c3.477-35.337 5.212-72.667 5.205-111.988A1338.635 1338.635 0 0 0 4.007 2.026l18.356-.003z" opacity=".1"/>
        <path fill="#D9452D" d="M130.119 26.46c0-3.234 1.108-7.772 2.769-9.993l-99.642-.424a20.426 20.426 0 0 1 2.179 9.307c0 3.406-1.661 8.327-3.484 10.19l100.749.358a20.546 20.546 0 0 1-2.571-9.438zM130.119 203.315a6.652 6.652 0 0 1 2.769-4.963l-99.642-.211a6.539 6.539 0 0 1 2.179 4.623c0 1.692-1.661 4.136-3.484 5.061l100.749.178c-1.463-1.378-2.571-2.998-2.571-4.688z" opacity=".2"/>
        <path fill="#D8232A" d="M35.36 76.68c-.007-1.29.112-2.578.354-3.846l-12.782-.163c.191 1.184.284 2.382.276 3.582a17.17 17.17 0 0 1-.446 3.922l12.925.137a21.224 21.224 0 0 1-.328-3.632zM51.836 76.68c-.006-1.29.113-2.578.355-3.846l-12.783-.163c.193 1.184.286 2.382.28 3.582a17.17 17.17 0 0 1-.448 3.922l12.925.137a21.235 21.235 0 0 1-.33-3.632zM69.81 76.68c-.006-1.29.113-2.578.355-3.846l-12.782-.163c.191 1.184.284 2.382.276 3.582a17.165 17.165 0 0 1-.447 3.922l12.925.137a21.244 21.244 0 0 1-.327-3.632zM89.283 76.68c-.006-1.29.112-2.578.355-3.846l-12.783-.163c.192 1.184.284 2.382.277 3.582a17.17 17.17 0 0 1-.447 3.922l12.925.137a21.234 21.234 0 0 1-.327-3.632zM107.257 76.68c-.006-1.29.113-2.578.355-3.846l-12.783-.163c.192 1.184.285 2.382.277 3.582a17.17 17.17 0 0 1-.447 3.922l12.925.137a21.264 21.264 0 0 1-.327-3.632z" opacity=".2"/>
        <path fill="#D9452D" d="M140.679 116.954a7.295 7.295 0 0 1 1.107-3.592l-119.167-.163c.66.424 1.215 2.201 1.215 3.755 0 1.311-.554 3.331-1.662 3.749l119.379.137a6.923 6.923 0 0 1-.872-3.886zM140.679 139.716a7.298 7.298 0 0 1 1.107-3.592l-119.167-.163c.66.424 1.215 2.201 1.215 3.755 0 1.311-.554 3.331-1.662 3.749l119.379.138a6.926 6.926 0 0 1-.872-3.887zM140.679 162.479a7.295 7.295 0 0 1 1.107-3.592l-119.167-.164c.66.425 1.215 2.202 1.215 3.756 0 1.31-.554 3.331-1.662 3.748l119.379.138a6.925 6.925 0 0 1-.872-3.886z" opacity=".2"/>
        <path fill="#D8232A" d="M123.733 76.68c-.006-1.29.113-2.578.355-3.846l-12.783-.163c.193 1.184.287 2.382.28 3.582a17.198 17.198 0 0 1-.447 3.922l12.925.137a21.265 21.265 0 0 1-.33-3.632zM141.708 76.68c-.006-1.29.113-2.578.355-3.846l-12.783-.163c.192 1.184.285 2.382.277 3.582a17.198 17.198 0 0 1-.447 3.922l12.925.137a21.264 21.264 0 0 1-.327-3.632z" opacity=".2"/>
    </g>
    <defs>
        <filter id="a" width="164.831" height="238" x="0" y="0" color-interpolation-filters="sRGB" filterUnits="userSpaceOnUse">
            <feFlood flood-opacity="0" result="BackgroundImageFix"/>
            <feColorMatrix in="SourceAlpha" values="0 0 0 0 0 0 0 0 0 0 0 0 0 0 0 0 0 0 127 0"/>
            <feOffset dy="2"/>
            <feGaussianBlur stdDeviation="2"/>
            <feColorMatrix values="0 0 0 0 0 0 0 0 0 0 0 0 0 0 0 0 0 0 0.3 0"/>
            <feBlend in2="BackgroundImageFix" result="effect1_dropShadow"/>
            <feBlend in="SourceGraphic" in2="effect1_dropShadow" result="shape"/>
        </filter>
    </defs>
</svg>
